<?xml version="1.0" encoding="UTF-8" standalone="no"?>
<svg
   xmlns:dc="http://purl.org/dc/elements/1.1/"
   xmlns:cc="http://creativecommons.org/ns#"
   xmlns:rdf="http://www.w3.org/1999/02/22-rdf-syntax-ns#"
   xmlns:svg="http://www.w3.org/2000/svg"
   xmlns="http://www.w3.org/2000/svg"
   xmlns:sodipodi="http://sodipodi.sourceforge.net/DTD/sodipodi-0.dtd"
   xmlns:inkscape="http://www.inkscape.org/namespaces/inkscape"
   width="24"
   height="24"
   viewBox="0 0 24 24"
   version="1.1"
   id="svg3763"
   sodipodi:docname="iconmonstr-pin-4.svg"
   inkscape:version="0.92.4 (5da689c313, 2019-01-14)">
  <metadata
     id="metadata3769">
    <rdf:RDF>
      <cc:Work
         rdf:about="">
        <dc:format>image/svg+xml</dc:format>
        <dc:type
           rdf:resource="http://purl.org/dc/dcmitype/StillImage" />
      </cc:Work>
    </rdf:RDF>
  </metadata>
  <defs
     id="defs3767" />
  <sodipodi:namedview
     pagecolor="#ffffff"
     bordercolor="#666666"
     borderopacity="1"
     objecttolerance="10"
     gridtolerance="10"
     guidetolerance="10"
     inkscape:pageopacity="0"
     inkscape:pageshadow="2"
     inkscape:window-width="1366"
     inkscape:window-height="704"
     id="namedview3765"
     showgrid="false"
     inkscape:zoom="3.7786019"
     inkscape:cx="-90.550565"
     inkscape:cy="12.22292"
     inkscape:window-x="0"
     inkscape:window-y="27"
     inkscape:window-maximized="1"
     inkscape:current-layer="svg3763" />
  <path
     style="fill:#b3b3b3;stroke-width:1.11382294"
     d="m 8,15.315789 h 2 v 6.203008 L 8,24 Z"
     id="path3788"
     inkscape:connector-curvature="0" />
  <path
     style="fill:#ff0000"
     d="m 12.462,10.588 c 0.246,0.625 0.437,1.39 0.506,2.412 H 5.032 C 5.329,8.64 7.789,8.837 7.789,5.35 7.789,3.745 7.267,3 6.517,2 h 4.512 C 11.547,1.193 12.236,0.511 13.048,0 H 4 c 0,3.656 1.789,2.979 1.789,5.351 0,1.073 -0.364,1.59 -0.915,2.373 C 3.092,10.256 3,11.872 3,15 h 12 c 0,-1.27 -0.021,-2.287 -0.159,-3.222 -0.88,-0.232 -1.688,-0.64 -2.379,-1.19 z"
     id="path3786" />
  <path
     style="fill:#0000ff"
     d="M 21,5.5 C 21,7.985 18.982,10 16.5,10 14.016,10 12,7.985 12,5.5 12,3.015 14.016,1 16.5,1 18.982,1 21,3.015 21,5.5 Z"
     id="path3784" />
  <path
     style="fill:#ffffff"
     d="M 19,5 H 17 V 3 h -1 v 2 h -2 v 1 h 2 v 2 h 1 V 6 h 2 z"
     id="path3761" />
</svg>
